<svg width="110" height="38" viewBox="0 0 110 38" fill="none" xmlns="http://www.w3.org/2000/svg">
<path d="M11.3071 23.5023C9.05438 23.5023 7.07238 23.0174 5.36114 22.0475C3.67157 21.0562 2.35024 19.6876 1.39715 17.9419C0.465715 16.1747 0 14.1057 0 11.735C0 9.36427 0.465715 7.30607 1.39715 5.56038C2.35024 3.79312 3.67157 2.42458 5.36114 1.45475C7.05072 0.484917 9.03271 0 11.3071 0C13.5816 0 15.5636 0.484917 17.2531 1.45475C18.9644 2.42458 20.2857 3.79312 21.2171 5.56038C22.1702 7.30607 22.6468 9.3535 22.6468 11.7027C22.6468 14.0734 22.1702 16.1423 21.2171 17.9096C20.2857 19.6768 18.9644 21.0562 17.2531 22.0475C15.5636 23.0174 13.5816 23.5023 11.3071 23.5023ZM11.3071 19.235C13.2133 19.235 14.6971 18.5777 15.7585 17.263C16.8416 15.9268 17.3831 14.0841 17.3831 11.735C17.3831 9.36427 16.8524 7.53237 15.791 6.23926C14.7296 4.9246 13.235 4.26726 11.3071 4.26726C9.42262 4.26726 7.93883 4.9246 6.85577 6.23926C5.79437 7.53237 5.26367 9.36427 5.26367 11.735C5.26367 14.0841 5.79437 15.9268 6.85577 17.263C7.93883 18.5777 9.42262 19.235 11.3071 19.235Z" fill="#F1F1F1"/>
<path d="M26.64 29.2566C24.9937 29.2566 24.1706 28.4269 24.1706 26.7674V9.47204C24.1706 7.8341 24.972 7.01513 26.575 7.01513C28.1996 7.01513 29.0119 7.8341 29.0119 9.47204V9.56902C29.4667 8.7716 30.1382 8.13582 31.0264 7.66168C31.9145 7.18754 32.9109 6.95047 34.0156 6.95047C35.4019 6.95047 36.6149 7.28452 37.6547 7.95263C38.7161 8.62074 39.5392 9.56902 40.124 10.7975C40.7089 12.0259 41.0013 13.4915 41.0013 15.194C41.0013 16.8966 40.7089 18.3729 40.124 19.623C39.5392 20.8514 38.7161 21.8105 37.6547 22.5001C36.6149 23.1682 35.4019 23.5023 34.0156 23.5023C32.9542 23.5023 31.9794 23.276 31.0913 22.8234C30.2249 22.3708 29.5534 21.7674 29.0768 21.013V26.7674C29.0768 28.4269 28.2645 29.2566 26.64 29.2566ZM32.5535 19.8492C33.5932 19.8492 34.438 19.4721 35.0878 18.7178C35.7377 17.9635 36.0626 16.7889 36.0626 15.194C36.0626 13.6208 35.7377 12.4677 35.0878 11.735C34.438 10.9807 33.5932 10.6035 32.5535 10.6035C31.4921 10.6035 30.6364 10.9807 29.9866 11.735C29.3368 12.4677 29.0119 13.6208 29.0119 15.194C29.0119 16.7889 29.3368 17.9635 29.9866 18.7178C30.6364 19.4721 31.4921 19.8492 32.5535 19.8492Z" fill="#F1F1F1"/>
<path d="M50.3379 23.5023C48.4534 23.5023 46.8288 23.1682 45.4641 22.5001C44.1211 21.8105 43.0814 20.8514 42.3449 19.623C41.6301 18.3729 41.2727 16.9074 41.2727 15.2264C41.2727 13.5884 41.6193 12.1552 42.3124 10.9268C43.0272 9.67678 43.9912 8.70694 45.2042 8.01729C46.4389 7.30607 47.8577 6.95047 49.4606 6.95047C51.7784 6.95047 53.6196 7.68323 54.9842 9.14876C56.3489 10.5927 57.0312 12.5539 57.0312 15.0324C57.0312 15.8514 56.5222 16.2609 55.5041 16.2609H45.9515C46.1248 17.5109 46.5797 18.4268 47.3162 19.0087C48.0743 19.5691 49.114 19.8492 50.4354 19.8492C50.9552 19.8492 51.5401 19.7954 52.1899 19.6876C52.8614 19.5583 53.5004 19.3428 54.1069 19.0411C54.7351 18.7393 55.2658 18.6854 55.699 18.8794C56.1323 19.0518 56.4247 19.3536 56.5763 19.7846C56.7496 20.2156 56.7496 20.6682 56.5763 21.1424C56.4247 21.5949 56.0673 21.9721 55.5041 22.2738C54.7459 22.6833 53.9012 22.985 52.9697 23.179C52.06 23.3945 51.1827 23.5023 50.3379 23.5023ZM49.6556 10.1832C48.6158 10.1832 47.771 10.4957 47.1212 11.1208C46.493 11.7458 46.1031 12.6186 45.9515 13.7393H52.9697C52.8398 11.3686 51.735 10.1832 49.6556 10.1832Z" fill="#F1F1F1"/>
<path d="M60.4048 23.4376C58.7585 23.4376 57.9354 22.6079 57.9354 20.9484V9.47204C57.9354 7.8341 58.7368 7.01513 60.3398 7.01513C61.9427 7.01513 62.7442 7.8341 62.7442 9.47204V9.60135C63.2857 8.73927 64.0113 8.08194 64.9211 7.62935C65.8309 7.17676 66.849 6.95047 67.9753 6.95047C69.8599 6.95047 71.2678 7.50004 72.1993 8.59918C73.1307 9.67678 73.5964 11.347 73.5964 13.61V20.9484C73.5964 22.6079 72.7733 23.4376 71.127 23.4376C70.3472 23.4376 69.7407 23.2221 69.3075 22.7911C68.8959 22.36 68.6902 21.7458 68.6902 20.9484V13.8363C68.6902 12.7371 68.4844 11.9505 68.0728 11.4764C67.6612 10.9807 67.0547 10.7328 66.2533 10.7328C65.2135 10.7328 64.3796 11.0561 63.7514 11.7027C63.1449 12.3492 62.8416 13.2113 62.8416 14.2889V20.9484C62.8416 22.6079 62.0293 23.4376 60.4048 23.4376Z" fill="#F1F1F1"/>
<path d="M80.5918 23.1465C78.8372 23.1465 77.96 22.2737 77.96 20.528V2.97402C77.96 1.22832 78.8372 0.355469 80.5918 0.355469H88.4548C90.9025 0.355469 92.787 0.883489 94.1084 1.93953C95.4514 2.99557 96.1229 4.43954 96.1229 6.27145C96.1229 7.47835 95.8196 8.52362 95.2131 9.40724C94.6066 10.2693 93.7618 10.9159 92.6787 11.3469C93.9784 11.7133 94.9748 12.3598 95.668 13.2866C96.3828 14.2133 96.7402 15.3555 96.7402 16.7133C96.7402 18.7392 96.0254 20.3232 94.5958 21.4655C93.1878 22.5862 91.2599 23.1465 88.8122 23.1465H80.5918ZM82.7687 9.73052H87.5775C90.0469 9.73052 91.2816 8.78224 91.2816 6.88568C91.2816 5.01067 90.0469 4.07316 87.5775 4.07316H82.7687V9.73052ZM82.7687 19.4289H88.1299C89.4296 19.4289 90.3827 19.181 90.9892 18.6853C91.5957 18.1896 91.8989 17.4353 91.8989 16.4224C91.8989 15.431 91.5957 14.6874 90.9892 14.1918C90.3827 13.6961 89.4296 13.4482 88.1299 13.4482H82.7687V19.4289Z" fill="#F1F1F1"/>
<path fill-rule="evenodd" clip-rule="evenodd" d="M109.822 22.2308C108.821 28.253 103.61 34.149 93.7961 34.9364C89.0429 35.3177 83.3892 34.7059 77.5094 33.8663C75.5727 33.5897 73.6127 33.2887 71.6397 32.9857C67.5431 32.3566 63.3902 31.7189 59.2718 31.2731C53.1883 30.6146 47.3812 30.4025 42.3067 31.2523C37.2537 32.0986 33.0436 33.9768 29.9861 37.4113C29.343 38.1338 28.233 38.2007 27.5069 37.5608C26.7808 36.9209 26.7135 35.8166 27.3566 35.0941C31.1049 30.8835 36.1519 28.739 41.7237 27.8059C47.274 26.8764 53.4592 27.1284 59.6517 27.7987C63.8472 28.2528 68.1386 28.9116 72.2786 29.5471C74.2309 29.8468 76.1495 30.1414 78.0084 30.4068C83.8877 31.2464 89.1926 31.7995 93.5138 31.4528C101.848 30.7841 105.639 25.9769 106.357 21.6602C106.725 19.4441 106.294 17.3694 105.306 15.9005C104.35 14.4802 102.824 13.5359 100.68 13.5359C99.7102 13.5359 98.9239 12.7536 98.9239 11.7885C98.9239 10.8234 99.7102 10.041 100.68 10.041C104.025 10.041 106.633 11.5905 108.225 13.9563C109.784 16.2735 110.314 19.2773 109.822 22.2308Z" fill="#F1F1F1"/>
</svg>
